HIERARCHY
ROOT Hips
{
  OFFSET 51.2628 94.2025 15.2756
  CHANNELS 6 Xposition Yposition Zposition Zrotation Xrotation Yrotation
  JOINT spine
  {
    OFFSET 0 7.80059 0.448573
    CHANNELS 3 Zrotation Xrotation Yrotation
    JOINT spine1
    {
      OFFSET 0 10.1364 0
      CHANNELS 3 Zrotation Xrotation Yrotation
      JOINT spine2
      {
        OFFSET 0 9.71251 0
        CHANNELS 3 Zrotation Xrotation Yrotation
        JOINT Neck
        {
          OFFSET 0 24.9361 1.18887
          CHANNELS 3 Zrotation Xrotation Yrotation
          JOINT Head
          {
            OFFSET 0 7.53384 0
            CHANNELS 3 Zrotation Xrotation Yrotation
            End Site
            {
              OFFSET 0 18.2361 -6.01402
            }
          }
        }
        JOINT RightShoulder
        {
          OFFSET -4.08965 10.4888 -0.569457
          CHANNELS 3 Zrotation Xrotation Yrotation
          JOINT RightArm
          {
            OFFSET 0 13.757 0
            CHANNELS 3 Zrotation Xrotation Yrotation
            JOINT RightArmRoll
            {
              OFFSET 0 6.94478 0
              CHANNELS 3 Zrotation Xrotation Yrotation
              JOINT RightForeArm
              {
                OFFSET 0 20.2277 0
                CHANNELS 3 Zrotation Xrotation Yrotation
                JOINT RightForeArmRoll
                {
                  OFFSET 0 7.79312 0
                  CHANNELS 3 Zrotation Xrotation Yrotation
                  JOINT RightHand
                  {
                    OFFSET 0 15.6391 0
                    CHANNELS 3 Zrotation Xrotation Yrotation
                    End Site
                    {
                      OFFSET 0 0 0
                    }
                  }
                }
              }
            }
          }
        }
        JOINT LeftShoulder
        {
          OFFSET 4.08965 10.4888 -0.569457
          CHANNELS 3 Zrotation Xrotation Yrotation
          JOINT LeftArm
          {
            OFFSET 0 13.757 0
            CHANNELS 3 Zrotation Xrotation Yrotation
            JOINT LeftArmRoll
            {
              OFFSET 0 6.94478 0
              CHANNELS 3 Zrotation Xrotation Yrotation
              JOINT LeftForeArm
              {
                OFFSET 0 20.2277 0
                CHANNELS 3 Zrotation Xrotation Yrotation
                JOINT LeftForeArmRoll
                {
                  OFFSET 0 7.79312 0
                  CHANNELS 3 Zrotation Xrotation Yrotation
                  JOINT LeftHand
                  {
                    OFFSET 0 15.6391 0
                    CHANNELS 3 Zrotation Xrotation Yrotation
                    End Site
                    {
                      OFFSET 0 0 0
                    }
                  }
                }
              }
            }
          }
        }
      }
    }
  }
  JOINT RightUpLeg
  {
    OFFSET -6.91416 -1.26788 -1.06358
    CHANNELS 3 Zrotation Xrotation Yrotation
    JOINT RightUpLegRoll
    {
      OFFSET 0 18.3378 0
      CHANNELS 3 Zrotation Xrotation Yrotation
      JOINT RightLeg
      {
        OFFSET 0 -22.7085 0
        CHANNELS 3 Zrotation Xrotation Yrotation
        JOINT RightLegRoll
        {
          OFFSET 0 22.7828 0
          CHANNELS 3 Zrotation Xrotation Yrotation
          JOINT RightFoot
          {
            OFFSET 0 18.9629 0
            CHANNELS 3 Zrotation Xrotation Yrotation
            JOINT RightToeBase
            {
              OFFSET 0 15.852 0
              CHANNELS 3 Zrotation Xrotation Yrotation
              End Site
              {
                OFFSET 0.00671906 7.67701 -0.884892
              }
            }
          }
        }
      }
    }
  }
  JOINT LeftUpLeg
  {
    OFFSET 6.91416 -1.26788 -1.06358
    CHANNELS 3 Zrotation Xrotation Yrotation
    JOINT LeftUpLegRoll
    {
      OFFSET 0 18.3379 0
      CHANNELS 3 Zrotation Xrotation Yrotation
      JOINT LeftLeg
      {
        OFFSET 0 22.7084 0
        CHANNELS 3 Zrotation Xrotation Yrotation
        JOINT LeftLegRoll
        {
          OFFSET 0 22.9934 0
          CHANNELS 3 Zrotation Xrotation Yrotation
          JOINT LeftFoot
          {
            OFFSET 0 18.7522 0
            CHANNELS 3 Zrotation Xrotation Yrotation
            JOINT LeftToeBase
            {
              OFFSET 0 15.852 0
              CHANNELS 3 Zrotation Xrotation Yrotation
              End Site
              {
                OFFSET -0.030112 7.67701 -0.884893
              }
            }
          }
        }
      }
    }
  }
}
MOTION
Frames: 13
Frame Time: 0.00208333
51.6193 94.0312 16.1801 -0.899417 -7.4024 -0.702746 -0.679237 -1.32378 0.127873 -1.35638 1.35288 0.334826 -1.3615 2.99766 0.368718 6.74682 9.98081 -3.19666 8.89025 -3.0178 -0.437607 27.5783 -14.6621 -11.2579 -7.85651 60.1519 65.9824 8.71226e-007 1.94511e-006 1.74444e-006 -9.86142 86.1347 7.05992 -9.44393e-006 1.45155e-006 -3.00481 8.02913 -4.95165 0.697746 -64.9433 -3.73399 2.78807 -106.483 -0.888755 -16.312 2.51688e-006 6.89891e-007 -3.38646e-006 -3.57542 21.1832 1.87122 1.96877e-005 -2.25768e-006 3 -8.0296 -4.95154 -0.697701 178.981 -2.81127 -1.16003 180 7.01553e-015 178.95 -179.39 12.0147 179.113 -2.2066e-006 -3.05657e-006 0.180342 -18.1396 70.7412 21.8913 8.13649 25.2327 -3.48774 179.509 -6.47129 6.23946 4.54188e-006 -4.6773e-006 -1.52843 -5.27693 -10.3891 -0.359872 -1.13523e-006 -4.47681e-006 -0.283716 27.6216 72.4414 -24.7858 -8.13649 25.2327 3.48774 
51.6138 94.0317 16.1726 -0.908708 -7.38417 -0.692268 -0.676452 -1.32661 0.128125 -1.3508 1.34723 0.334688 -1.3559 2.99202 0.367829 6.72551 9.97916 -3.1979 8.88817 -3.06478 -0.44086 27.6202 -14.6464 -11.2369 -7.68398 60.0921 66.17 8.71226e-007 1.94511e-006 1.74444e-006 -8.36657 85.8975 5.66554 -9.44393e-006 1.45155e-006 -3.00481 8.02913 -4.95165 0.697746 -64.9507 -3.71805 2.77989 -106.479 -0.87651 -16.2933 2.51688e-006 6.89891e-007 -3.38646e-006 -3.58517 21.1875 1.87387 1.96877e-005 -2.25768e-006 3 -8.0296 -4.95154 -0.697701 178.996 -2.807 -1.16909 180 7.01553e-015 178.95 -179.392 11.9852 179.115 -2.2066e-006 -3.05657e-006 0.179302 -18.1303 70.7268 21.8762 8.13649 25.2327 -3.48774 179.525 -6.44777 6.22862 4.54188e-006 -4.6773e-006 -1.52803 -5.28089 -10.3958 -0.359579 -1.13523e-006 -4.47681e-006 -0.284072 27.624 72.4434 -24.7887 -8.13649 25.2327 3.48774 
51.6061 94.0309 16.1635 -0.917985 -7.36525 -0.681568 -0.673577 -1.32976 0.128383 -1.34504 1.34096 0.334442 -1.35013 2.98575 0.366702 6.70368 9.98007 -3.1982 8.88293 -3.11235 -0.443479 27.6625 -14.6302 -11.2153 -7.50403 60.0302 66.3556 8.71226e-007 1.94511e-006 1.74444e-006 -7.02881 85.6553 4.42858 -9.44393e-006 1.45155e-006 -3.00481 8.02913 -4.95165 0.697746 -64.9576 -3.70267 2.772 -106.475 -0.866291 -16.2746 2.51688e-006 6.89891e-007 -3.38646e-006 -3.59555 21.1934 1.87676 1.96877e-005 -2.25768e-006 3 -8.0296 -4.95154 -0.697701 179.01 -2.80287 -1.17806 180 7.01553e-015 178.95 -179.394 11.9542 179.116 -2.2066e-006 -3.05657e-006 0.178227 -18.1208 70.7118 21.8605 8.13649 25.2327 -3.48774 179.541 -6.42521 6.21739 4.54188e-006 -4.6773e-006 -1.52757 -5.28523 -10.4002 -0.3592 -1.13523e-006 -4.47681e-006 -0.284413 27.6254 72.4446 -24.7906 -8.13649 25.2327 3.48774 
51.6062 94.0315 16.1579 -0.927202 -7.34576 -0.670723 -0.670635 -1.33316 0.128639 -1.33915 1.33417 0.334096 -1.34421 2.97897 0.365372 6.6814 9.9829 -3.19767 8.87485 -3.16008 -0.445598 27.7051 -14.6137 -11.1932 -7.31836 59.9662 66.54 8.71226e-007 1.94511e-006 1.74444e-006 -5.82774 85.4081 3.32844 -9.44393e-006 1.45155e-006 -3.00481 8.02913 -4.95165 0.697746 -64.9641 -3.68787 2.76437 -106.472 -0.857774 -16.2559 2.51688e-006 6.89891e-007 -3.38646e-006 -3.60633 21.2004 1.8798 1.96877e-005 -2.25768e-006 3 -8.0296 -4.95154 -0.697701 179.024 -2.79876 -1.18693 180 7.01553e-015 178.95 -179.397 11.9224 179.118 -2.2066e-006 -3.05657e-006 0.177128 -18.1111 70.6965 21.8445 8.13649 25.2327 -3.48774 179.556 -6.40336 6.20596 4.54188e-006 -4.6773e-006 -1.52706 -5.28981 -10.4027 -0.358758 -1.13523e-006 -4.47681e-006 -0.284737 27.6261 72.4454 -24.7916 -8.13649 25.2327 3.48774 
51.6164 94.032 16.1628 -0.93631 -7.32581 -0.659806 -0.667649 -1.33676 0.128884 -1.33317 1.32698 0.333656 -1.33821 2.97178 0.363873 6.65874 9.98703 -3.19643 8.86426 -3.20752 -0.447354 27.7481 -14.5971 -11.1711 -7.12866 59.9006 66.724 8.71226e-007 1.94511e-006 1.74444e-006 -4.74648 85.1558 2.34806 -9.44393e-006 1.45155e-006 -3.00481 8.02913 -4.95165 0.697746 -64.9697 -3.67363 2.757 -106.469 -0.850636 -16.2375 2.51688e-006 6.89891e-007 -3.38646e-006 -3.61724 21.208 1.8829 1.96877e-005 -2.25768e-006 3 -8.0296 -4.95154 -0.697701 179.038 -2.79454 -1.19567 180 7.01553e-015 178.95 -179.399 11.89 179.119 -2.2066e-006 -3.05657e-006 0.176018 -18.1013 70.6811 21.8283 8.13649 25.2327 -3.48774 179.572 -6.38198 6.19451 4.54188e-006 -4.6773e-006 -1.52652 -5.29451 -10.4039 -0.358274 -1.13523e-006 -4.47681e-006 -0.285048 27.6263 72.4458 -24.7921 -8.13649 25.2327 3.48774 
51.612 94.032 16.1533 -0.945263 -7.30553 -0.648891 -0.664641 -1.34051 0.12911 -1.32715 1.31951 0.33313 -1.33216 2.96431 0.362238 6.63574 9.99183 -3.1946 8.8515 -3.25423 -0.448882 27.7913 -14.5806 -11.1491 -6.93663 59.8334 66.9084 8.71226e-007 1.94511e-006 1.74444e-006 -3.77101 84.8983 1.47323 -9.44393e-006 1.45155e-006 -3.00481 8.02913 -4.95165 0.697746 -64.9742 -3.65996 2.74986 -106.467 -0.844555 -16.2193 2.51688e-006 6.89891e-007 -3.38646e-006 -3.62804 21.2157 1.88597 1.96877e-005 -2.25768e-006 3 -8.0296 -4.95154 -0.697701 179.052 -2.79009 -1.20427 180 7.01553e-015 178.949 -179.401 11.8576 179.121 -2.2066e-006 -3.05657e-006 0.174905 -18.0915 70.6658 21.8122 8.13649 25.2327 -3.48774 179.588 -6.36082 6.18326 4.54188e-006 -4.6773e-006 -1.52597 -5.2992 -10.4043 -0.35777 -1.13523e-006 -4.47681e-006 -0.285345 27.6261 72.446 -24.7924 -8.13649 25.2327 3.48774 
51.6095 94.0307 16.1499 -0.954013 -7.28502 -0.638053 -0.661636 -1.34435 0.129311 -1.32113 1.31185 0.332525 -1.32612 2.95665 0.3605 6.61249 9.99667 -3.1923 8.83688 -3.29976 -0.450317 27.8347 -14.5644 -11.1274 -6.74394 59.7649 67.094 8.71226e-007 1.94511e-006 1.74444e-006 -2.88958 84.6355 0.69201 -9.44393e-006 1.45155e-006 -3.00481 8.02913 -4.95165 0.697746 -64.9773 -3.64686 2.74293 -106.467 -0.839206 -16.2015 2.51688e-006 6.89891e-007 -3.38646e-006 -3.63847 21.223 1.88891 1.96877e-005 -2.25768e-006 3 -8.0296 -4.95154 -0.697701 179.065 -2.78528 -1.21269 180 7.01553e-015 178.949 -179.404 11.8256 179.123 -2.2066e-006 -3.05657e-006 0.173803 -18.0818 70.6506 21.7964 8.13649 25.2327 -3.48774 179.603 -6.33965 6.17237 4.54188e-006 -4.6773e-006 -1.52544 -5.30377 -10.4046 -0.357268 -1.13523e-006 -4.47681e-006 -0.285629 27.6257 72.4463 -24.7927 -8.13649 25.2327 3.48774 
51.6093 94.0311 16.1438 -0.962512 -7.26441 -0.627366 -0.658656 -1.34822 0.129477 -1.31516 1.30412 0.331847 -1.32013 2.94893 0.358694 6.58904 10.0009 -3.18965 8.82073 -3.34367 -0.451795 27.8783 -14.5489 -11.1064 -6.5523 59.6952 67.2814 8.71226e-007 1.94511e-006 1.74444e-006 -2.0923 84.3672 -0.00568187 -9.44393e-006 1.45155e-006 -3.00481 8.02913 -4.95165 0.697746 -64.9789 -3.63434 2.73619 -106.468 -0.834267 -16.1841 2.51688e-006 6.89891e-007 -3.38646e-006 -3.6483 21.2294 1.89165 1.96877e-005 -2.25768e-006 3 -8.0296 -4.95154 -0.697701 179.078 -2.78 -1.22093 180 7.01553e-015 178.949 -179.406 11.7944 179.124 -2.2066e-006 -3.05657e-006 0.172722 -18.0723 70.6359 21.781 8.13649 25.2327 -3.48774 179.618 -6.31823 6.16206 4.54188e-006 -4.6773e-006 -1.52493 -5.30808 -10.4053 -0.356791 -1.13523e-006 -4.47681e-006 -0.285902 27.6254 72.4467 -24.7932 -8.13649 25.2327 3.48774 
51.6101 94.0299 16.1407 -0.970714 -7.24382 -0.616904 -0.655723 -1.35208 0.129601 -1.30929 1.29644 0.331103 -1.31423 2.94125 0.356854 6.56546 10.004 -3.18676 8.80339 -3.38551 -0.453452 27.922 -14.5341 -11.0863 -6.36335 59.6247 67.4715 8.71226e-007 1.94511e-006 1.74444e-006 -1.37076 84.0932 -0.628438 -9.44393e-006 1.45155e-006 -3.00481 8.02913 -4.95165 0.697746 -64.9786 -3.62239 2.72963 -106.472 -0.829413 -16.1671 2.51688e-006 6.89891e-007 -3.38646e-006 -3.65726 21.2344 1.89407 1.96877e-005 -2.25768e-006 3 -8.0296 -4.95154 -0.697701 179.09 -2.7741 -1.22896 180 7.01553e-015 178.949 -179.408 11.7644 179.126 -2.2066e-006 -3.05657e-006 0.171673 -18.0631 70.6217 21.7663 8.13649 25.2327 -3.48774 179.631 -6.2963 6.1525 4.54188e-006 -4.6773e-006 -1.52446 -5.312 -10.4069 -0.356359 -1.13523e-006 -4.47681e-006 -0.286164 27.6253 72.4475 -24.7942 -8.13649 25.2327 3.48774 
51.6085 94.0299 16.1352 -0.978568 -7.22335 -0.606742 -0.652861 -1.35585 0.129675 -1.30356 1.28891 0.330302 -1.30847 2.93372 0.355013 6.54182 10.0051 -3.18376 8.78517 -3.42485 -0.455423 27.9657 -14.5203 -11.0674 -6.17882 59.5534 67.6651 8.71226e-007 1.94511e-006 1.74444e-006 -0.717784 83.8132 -1.18363 -9.44393e-006 1.45155e-006 -3.00481 8.02913 -4.95165 0.697746 -64.9762 -3.61101 2.72322 -106.477 -0.824323 -16.1508 2.51688e-006 6.89891e-007 -3.38646e-006 -3.6651 21.2376 1.8961 1.96877e-005 -2.25768e-006 3 -8.0296 -4.95154 -0.697701 179.102 -2.76748 -1.23677 180 7.01553e-015 178.949 -179.411 11.736 179.127 -2.2066e-006 -3.05657e-006 0.170668 -18.0541 70.6082 21.7524 8.13649 25.2327 -3.48774 179.644 -6.27364 6.1439 4.54188e-006 -4.6773e-006 -1.52406 -5.31543 -10.41 -0.355996 -1.13523e-006 -4.47681e-006 -0.286415 27.6256 72.4489 -24.796 -8.13649 25.2327 3.48774 
51.6119 94.0285 16.1333 -0.986028 -7.20312 -0.596954 -0.650093 -1.35949 0.129692 -1.29802 1.28165 0.329449 -1.30291 2.92646 0.353206 6.51817 10.0039 -3.18077 8.76641 -3.46123 -0.457844 28.0094 -14.5078 -11.0499 -6.00035 59.4815 67.8629 8.71226e-007 1.94511e-006 1.74444e-006 -0.127192 83.5271 -1.67761 -9.44393e-006 1.45155e-006 -3.00481 8.02913 -4.95165 0.697746 -64.9715 -3.60022 2.71694 -106.485 -0.81867 -16.1351 2.51688e-006 6.89891e-007 -3.38646e-006 -3.67158 21.2383 1.89764 1.96877e-005 -2.25768e-006 3 -8.0296 -4.95154 -0.697701 179.114 -2.76001 -1.24433 180 7.01553e-015 178.949 -179.413 11.7098 179.129 -2.2066e-006 -3.05657e-006 0.169717 -18.0456 70.5957 21.7396 8.13649 25.2327 -3.48774 179.656 -6.24999 6.13644 4.54188e-006 -4.6773e-006 -1.52373 -5.31822 -10.4153 -0.355723 -1.13523e-006 -4.47681e-006 -0.286658 27.6266 72.4509 -24.7988 -8.13649 25.2327 3.48774 
51.6089 94.0284 16.1275 -0.993044 -7.18326 -0.587614 -0.647442 -1.36294 0.129642 -1.29271 1.27477 0.328552 -1.29758 2.91958 0.351465 6.49459 9.99947 -3.17791 8.74743 -3.49422 -0.46085 28.0531 -14.4967 -11.034 -5.82962 59.4093 68.0656 8.71226e-007 1.94511e-006 1.74444e-006 0.406371 83.2346 -2.11594 -9.44393e-006 1.45155e-006 -3.00481 8.02913 -4.95165 0.697746 -64.9641 -3.59 2.71078 -106.497 -0.812133 -16.1201 2.51688e-006 6.89891e-007 -3.38646e-006 -3.67645 21.2362 1.8986 1.96877e-005 -2.25768e-006 3 -8.0296 -4.95154 -0.697701 179.124 -2.75155 -1.25161 180 7.01553e-015 178.949 -179.415 11.686 179.13 -2.2066e-006 -3.05657e-006 0.168833 -18.0376 70.5843 21.7281 8.13649 25.2327 -3.48774 179.667 -6.22513 6.13032 4.54188e-006 -4.6773e-006 -1.52351 -5.32025 -10.4231 -0.355561 -1.13523e-006 -4.47681e-006 -0.286893 27.6283 72.4539 -24.8029 -8.13649 25.2327 3.48774 
51.6127 94.0394 16.1074 -0.999569 -7.16388 -0.578797 -0.644931 -1.36614 0.129519 -1.28769 1.26838 0.327617 -1.29253 2.91319 0.349825 6.47113 9.99136 -3.1753 8.72856 -3.52337 -0.464576 28.0966 -14.4874 -11.02 -5.66832 59.3368 68.274 8.71226e-007 1.94511e-006 1.74444e-006 0.887561 82.9353 -2.50346 -9.44393e-006 1.45155e-006 -3.00481 8.02913 -4.95165 0.697746 -64.9539 -3.58037 2.70472 -106.511 -0.804387 -16.106 2.51688e-006 6.89891e-007 -3.38646e-006 -3.67944 21.2307 1.89889 1.96877e-005 -2.25768e-006 3 -8.0296 -4.95154 -0.697701 179.134 -2.742 -1.25861 180 7.01553e-015 178.949 -179.416 11.6652 179.131 -2.2066e-006 -3.05657e-006 0.168025 -18.0301 70.5741 21.7179 8.13649 25.2327 -3.48774 179.677 -6.1988 6.12572 4.54188e-006 -4.6773e-006 -1.5234 -5.3214 -10.4342 -0.355534 -1.13523e-006 -4.47681e-006 -0.28712 27.631 72.458 -24.8085 -8.13649 25.2327 3.48774 
